<?xml version="1.0" encoding="UTF-8"?>
<svg width="347px" height="93px" viewBox="0 0 347 93" version="1.1" xmlns="http://www.w3.org/2000/svg" xmlns:xlink="http://www.w3.org/1999/xlink">
    <title>spaces_logo</title>
    <g id="Page-1" stroke="none" stroke-width="1" fill="none" fill-rule="evenodd">
        <g id="spaces_logo" transform="translate(0.738149, 0.738149)">
            <path d="M158.318651,59.431151 C158.318651,63.203251 155.407951,66.261851 151.354451,66.261851 C147.297951,66.261851 144.389951,63.203251 144.389951,59.431151 C144.389951,55.664251 147.297951,52.609151 151.354451,52.609151 C155.407951,52.609151 158.318651,55.664251 158.318651,59.431151 Z M106.154351,56.620451 C106.016751,56.553651 104.948351,55.912151 103.360751,55.912151 C101.202451,55.912151 99.712051,57.416651 99.712051,59.431151 C99.712051,61.389251 101.140351,62.949851 103.360751,62.949851 C104.920851,62.949851 106.006151,62.329351 106.154351,62.253051 L106.154351,65.791951 C105.735051,65.911551 104.603751,66.261851 103.115351,66.261851 C99.379751,66.261851 96.098551,63.681351 96.098551,59.431151 C96.098551,55.492051 99.068651,52.609151 103.115351,52.609151 C104.683051,52.609151 105.840251,52.986951 106.154351,53.078751 L106.154351,56.620451 Z M140.884051,56.620451 C140.750251,56.553651 139.675651,55.912151 138.088851,55.912151 C135.934051,55.912151 134.440951,57.416651 134.440951,59.431151 C134.440951,61.389251 135.871151,62.949851 138.088851,62.949851 C139.649751,62.949851 140.739951,62.329351 140.884051,62.253051 L140.884051,65.791951 C140.464751,65.911551 139.328851,66.261851 137.852051,66.261851 C134.108651,66.261851 130.825751,63.681351 130.825751,59.431151 C130.825751,55.492051 133.798351,52.609151 137.852051,52.609151 C139.413851,52.609151 140.571051,52.986951 140.884051,53.078751 L140.884051,56.620451 Z M126.675651,55.838351 C126.627951,55.821951 125.221751,55.433551 124.075151,55.433551 C122.738451,55.433551 122.016851,55.882151 122.016851,56.518251 C122.016851,57.317251 122.995351,57.597851 123.540451,57.771651 L124.458951,58.064751 C126.617351,58.748251 127.601551,60.229851 127.601551,61.833851 C127.601551,65.149351 124.687051,66.261351 122.140751,66.261351 C120.373951,66.261351 118.716551,65.935751 118.550451,65.902551 L118.550451,62.865751 C118.843551,62.939251 120.238251,63.355451 121.692151,63.355451 C123.350551,63.355451 124.110551,62.873351 124.110551,62.120951 C124.110551,61.455751 123.450851,61.071851 122.629751,60.814151 C122.424351,60.745251 122.121951,60.649951 121.914651,60.580951 C120.067451,59.997751 118.516051,58.907551 118.516051,56.725251 C118.516051,54.260251 120.363251,52.600951 123.433651,52.600951 C125.053651,52.600951 126.575351,52.995151 126.675651,53.022151 L126.675651,55.838351 Z M114.054851,66.026451 L110.727851,66.026451 L110.727851,52.839651 L114.054851,52.839651 L114.054851,66.026451 Z M151.354451,55.963851 C149.378051,55.963851 147.910851,57.519051 147.910851,59.431151 C147.910851,61.352151 149.378051,62.904351 151.354451,62.904351 C153.327551,62.904351 154.797951,61.352151 154.797951,59.431151 C154.797951,57.519051 153.327551,55.963851 151.354451,55.963851 Z M147.013551,27.908681 C147.013551,26.99984 146.279451,26.261851 145.366851,26.261851 C144.457751,26.261851 143.719851,26.99984 143.719851,27.908681 L143.719851,45.419451 C143.719851,46.333051 144.457751,47.072951 145.366851,47.072951 C146.279451,47.072951 147.013551,46.333051 147.013551,45.419451 L147.013551,27.908681 Z M110.715051,27.908681 C110.715051,26.99984 109.973251,26.261851 109.065351,26.261851 C108.153851,26.261851 107.411751,26.99984 107.411751,27.908681 L107.411751,45.419451 C107.411751,46.333051 108.153851,47.072951 109.065351,47.072951 C109.973251,47.072951 110.715051,46.333051 110.715051,45.419451 L110.715051,27.908681 Z M137.937051,34.123911 C137.937051,33.218821 137.197251,32.475141 136.288451,32.475141 C135.376651,32.475141 134.641451,33.218821 134.641451,34.123911 L134.641451,42.128951 C134.641451,43.046151 135.376651,43.777551 136.288451,43.777551 C137.197251,43.777551 137.937051,43.046151 137.937051,42.128951 L137.937051,34.123911 Z M119.790651,34.123911 C119.790651,33.218821 119.051651,32.475141 118.140151,32.475141 C117.232251,32.475141 116.489351,33.218821 116.489351,34.123911 L116.489351,42.128951 C116.489351,43.046151 117.232251,43.777551 118.140151,43.777551 C119.051651,43.777551 119.790651,43.046151 119.790651,42.128951 L119.790651,34.123911 Z M101.643751,34.123911 C101.643751,33.218821 100.901951,32.475141 99.991351,32.475141 C99.078451,32.475141 98.339681,33.218821 98.339681,34.123911 L98.339681,42.128951 C98.339681,43.046151 99.078451,43.777551 99.991351,43.777551 C100.901951,43.777551 101.643751,43.046151 101.643751,42.128951 L101.643751,34.123911 Z M156.091151,34.123911 C156.091151,33.218821 155.353151,32.475141 154.424251,32.475141 C153.514351,32.475141 152.777551,33.218821 152.777551,34.123911 L152.777551,42.128951 C152.777551,43.046151 153.514351,43.777551 154.424251,43.777551 C155.353151,43.777551 156.091151,43.046151 156.091151,42.128951 L156.091151,34.123911 Z M128.855151,38.668551 C128.855151,37.761651 128.116351,37.021651 127.214151,37.021651 C126.303451,37.021651 125.561451,37.761651 125.561451,38.668551 L125.561451,42.129251 C125.561451,43.046751 126.303451,43.777051 127.214151,43.777051 C128.116351,43.777051 128.855151,43.046751 128.855151,42.129251 L128.855151,38.668551 Z M165.152851,38.668551 C165.152851,37.761651 164.409951,37.021651 163.506151,37.021651 C162.594351,37.021651 161.859151,37.761651 161.859151,38.668551 L161.859151,42.129251 C161.859151,43.046751 162.594351,43.777051 163.506151,43.777051 C164.409951,43.777051 165.152851,43.046751 165.152851,42.129251 L165.152851,38.668551 Z M92.566741,38.668551 C92.566741,37.761651 91.827961,37.021651 90.917021,37.021651 C90.008258,37.021651 89.261851,37.761651 89.261851,38.668551 L89.261851,42.129251 C89.261851,43.046751 90.008258,43.777051 90.917021,43.777051 C91.827961,43.777051 92.566741,43.046751 92.566741,42.129251 L92.566741,38.668551 Z" id="Shape" fill="#FFFFFF"></path>
            <path d="M177.612851,35.661751 L177.612851,57.261751 L183.612851,57.261751 C189.642851,57.261751 194.112851,53.331751 194.112851,46.461751 C194.112851,39.441751 189.822851,35.661751 183.702851,35.661751 L177.612851,35.661751 Z M183.762851,37.071751 C188.772851,37.071751 192.402851,40.281751 192.402851,46.461751 C192.402851,52.551751 188.862851,55.821751 183.822851,55.821751 L179.292851,55.821751 L179.292851,37.071751 L183.762851,37.071751 Z" id="Shape" fill="#FFFFFF" fill-rule="nonzero"></path>
            <polygon id="Path" fill="#FFFFFF" fill-rule="nonzero" points="213.030851 35.661751 213.030851 54.981751 200.190851 35.661751 198.120851 35.661751 198.120851 57.261751 199.710851 57.261751 199.710851 37.821751 212.580851 57.261751 214.560851 57.261751 214.560851 35.661751"></polygon>
            <path d="M236.637851,57.261751 L227.997851,35.661751 L225.897851,35.661751 L217.227851,57.261751 L218.997851,57.261751 L221.427851,51.141751 L232.347851,51.141751 L234.777851,57.261751 L236.637851,57.261751 Z M226.947851,37.281751 L231.807851,49.731751 L221.997851,49.731751 L226.947851,37.281751 Z" id="Shape" fill="#FFFFFF" fill-rule="nonzero"></path>
            <path d="M261.895851,51.741751 C261.895851,54.411851 259.645851,56.241751 255.535851,56.241751 C252.055851,56.241751 249.445851,54.711751 248.875851,51.741751 L247.105851,51.741751 C247.795851,55.551751 251.065851,57.711851 255.535851,57.711851 C260.755851,57.711851 263.605851,55.041851 263.605851,51.681851 C263.605851,48.321851 261.625851,46.431851 255.865851,45.111851 C250.885851,44.001851 249.745851,42.741851 249.745851,40.431851 C249.745851,38.241851 251.575851,36.651801 255.505851,36.651801 C258.985851,36.651801 261.325851,38.151851 261.865851,40.611851 L263.605851,40.611851 C262.945851,37.221801 259.735851,35.211801 255.475851,35.211801 C250.615851,35.211801 248.035851,37.431851 248.035851,40.521851 C248.035851,43.551851 249.805851,45.381851 254.695851,46.461851 C260.545851,47.751851 261.895851,49.101751 261.895851,51.741751 Z" id="Path" fill="#FFFFFF" fill-rule="nonzero"></path>
            <path d="M267.550851,41.661851 L267.550851,62.661851 L269.170851,62.661851 L269.170851,54.471851 C270.130851,56.391851 271.960851,57.711851 274.480851,57.711851 C278.290851,57.711851 281.230851,54.801851 281.230851,49.281851 C281.230851,43.911851 278.500851,41.211851 274.660851,41.211851 C272.020851,41.211851 270.100851,42.621851 269.140851,44.571851 L268.870851,41.661851 L267.550851,41.661851 Z M279.550851,49.251851 C279.550851,54.051851 277.240851,56.331851 274.240851,56.331851 C271.240851,56.331851 269.050851,54.021851 269.050851,49.461851 C269.050851,44.481851 271.690851,42.591851 274.330851,42.591851 C277.330851,42.591851 279.550851,44.661851 279.550851,49.251851 Z" id="Shape" fill="#FFFFFF" fill-rule="nonzero"></path>
            <path d="M286.182851,45.711851 C286.392851,43.821851 287.982851,42.531851 290.472851,42.531851 C293.142851,42.531851 294.732851,43.911851 294.732851,46.161851 L294.732851,47.511851 L290.052851,48.291851 C285.672851,49.011851 284.052851,50.631851 284.052851,53.301851 C284.052851,56.061851 286.242851,57.711851 289.272851,57.711851 C292.062851,57.711851 293.832851,56.301851 294.792851,54.681851 L295.032851,57.261851 L296.352851,57.261851 L296.352851,46.341851 C296.352851,43.161851 294.042851,41.211851 290.562851,41.211851 C287.112851,41.211851 284.742851,43.041851 284.502851,45.711851 L286.182851,45.711851 Z M289.692851,56.331851 C287.352851,56.331851 285.732851,55.281851 285.732851,53.181851 C285.732851,51.321851 286.812851,50.151851 290.532851,49.521851 L294.732851,48.801851 L294.732851,51.711851 C294.732851,54.441851 292.182851,56.331851 289.692851,56.331851 Z" id="Shape" fill="#FFFFFF" fill-rule="nonzero"></path>
            <path d="M311.601851,52.671851 C311.211851,54.861851 309.351851,56.331851 306.921851,56.331851 C304.041851,56.331851 301.611851,54.231851 301.611851,49.641851 C301.611851,44.841851 303.951851,42.561851 306.951851,42.561851 C309.321851,42.561851 311.061851,43.911851 311.451851,45.981851 L313.221851,45.981851 C312.711851,43.071851 310.221851,41.211851 306.891851,41.211851 C303.021851,41.211851 299.931851,44.061851 299.931851,49.581851 C299.931851,54.891851 302.991851,57.711851 306.861851,57.711851 C310.341851,57.711851 312.831851,55.581851 313.311851,52.671851 L311.601851,52.671851 Z" id="Path" fill="#FFFFFF" fill-rule="nonzero"></path>
            <path d="M328.312851,53.001851 C327.712851,55.071851 325.912851,56.331851 323.572851,56.331851 C320.452851,56.331851 317.932851,54.291851 317.782851,49.851851 L330.292851,49.851851 C330.292851,43.911851 327.232851,41.211851 323.242851,41.211851 C319.222851,41.211851 316.132851,44.121851 316.132851,49.461851 C316.132851,54.801851 319.312851,57.711851 323.542851,57.711851 C326.872851,57.711851 329.272851,55.851851 330.022851,53.001851 L328.312851,53.001851 Z M323.242851,42.531851 C326.152851,42.531851 328.402851,44.511851 328.612851,48.501851 L317.812851,48.501851 C318.112851,44.601851 320.392851,42.531851 323.242851,42.531851 Z" id="Shape" fill="#FFFFFF" fill-rule="nonzero"></path>
            <path d="M343.681851,53.151851 C343.681851,54.831851 342.151851,56.391851 339.271851,56.391851 C336.601851,56.391851 334.891851,55.101851 334.651851,53.121851 L332.971851,53.121851 C333.331851,55.821851 335.581851,57.711851 339.241851,57.711851 C343.081851,57.711851 345.361851,55.551851 345.361851,53.061851 C345.361851,50.361851 343.501851,49.131851 339.511851,48.381851 C336.181851,47.751851 335.161851,46.911851 335.161851,45.201851 C335.161851,43.761851 336.391851,42.531851 339.121851,42.531851 C341.581851,42.531851 343.321851,43.791851 343.591851,45.531851 L345.271851,45.531851 C344.821851,42.891851 342.421851,41.211851 339.181851,41.211851 C335.401851,41.211851 333.511851,43.011851 333.511851,45.351851 C333.511851,47.811851 335.401851,49.161851 338.581851,49.701851 C342.121851,50.331851 343.681851,51.141851 343.681851,53.151851 Z" id="Path" fill="#FFFFFF" fill-rule="nonzero"></path>
            <path d="M45.761851,13.4165516 L73.7737021,29.5892013 L73.7737021,61.9345008 L45.761851,78.1071505 L17.75,61.9345008 L17.75,29.5892013 L45.761851,13.4165516 Z" id="Polygon" stroke="#FFFFFF" stroke-width="2" transform="translate(45.761851, 45.761851) rotate(30.000000) translate(-45.761851, -45.761851) "></path>
        </g>
    </g>
</svg>